<!DOCTYPE svg PUBLIC "-//W3C//DTD SVG 1.1//EN" "http://www.w3.org/Graphics/SVG/1.1/DTD/svg11.dtd">
<!-- Uploaded to: SVG Repo, www.svgrepo.com, Transformed by: SVG Repo Mixer Tools -->
<svg width="800px" height="800px" viewBox="0 0 512 512" xmlns="http://www.w3.org/2000/svg" xmlns:xlink="http://www.w3.org/1999/xlink" aria-hidden="true" role="img" class="iconify iconify--fxemoji" preserveAspectRatio="xMidYMid meet" fill="#000000">
<g id="SVGRepo_bgCarrier" stroke-width="0"/>
<g id="SVGRepo_tracerCarrier" stroke-linecap="round" stroke-linejoin="round"/>
<g id="SVGRepo_iconCarrier">
<path fill="#367bf4" d="M409.8 175.2c0-85-68.9-153.9-153.9-153.9S102.1 90.2 102.1 175.2c0 14.5 2 28.6 5.8 41.9c3.2 25.1 6.5 55.6 6.5 74.3c0 36 1.8 92.8 1.8 92.8c-10 63.8 38.3 105.9 103 105.9s96.8-44.5 117-105.9c1.7-5.3 2.9-10.4 3.6-15.5c20.3-75.6 70-87.1 70-193.5z"/>
<path fill="#0317b0" d="M256 58.1c-63.8 0-115.7 51.9-115.7 115.7c0 33.2 17.1 58.6 36.3 84c1.5 1.9 3.7 2.9 5.9 2.9c1.6 0 3.1-.5 4.4-1.5c3.3-2.5 3.9-7.1 1.4-10.4c-17.5-23.2-33.3-46.4-33.3-75c0-55.6 45.3-100.9 100.9-100.9s100.9 45.3 100.9 100.9c0 55.5-9.9 72.7-24.8 98.7c-12.8 22.2-28.7 49.9-44.6 109.8c-1 3.9 1.3 8 5.2 9c.6.2 1.3.2 1.9.2c3.3 0 6.3-2.2 7.1-5.5c15.4-58 30.8-84.8 43.1-106.3c15.5-27 26.8-46.6 26.8-106C371.6 110 319.7 58.1 256 58.1z"/>
<path fill="#0317b0" d="M258.1 256.2c-.6 0-7.7-.4-14.7-4c-9.4-4.8-13.9-12.9-13.9-24.7c0-4.1-3.3-7.4-7.4-7.4s-7.4 3.3-7.4 7.4c0 21.9 12 32.7 22 37.8c10.4 5.3 20.7 5.6 21.2 5.6h.2c10.8 0 19.6 8.8 19.6 19.6s-8.8 19.6-19.6 19.6h-24.9c-25.1 0-37.2 14.1-37.2 43.1v61.4c0 4.7-3.8 8.5-8.5 8.5s-8.5-3.8-8.5-8.5V372c0-4.1-3.3-7.4-7.4-7.4s-7.4 3.3-7.4 7.4v42.7c0 12.9 10.5 23.3 23.3 23.3s23.3-10.5 23.3-23.3v-61.4c0-26.1 10.6-28.3 22.4-28.3H258c19 0 34.4-15.4 34.4-34.4c0-18.9-15.4-34.3-34.3-34.4z"/>
</g>
</svg>