<!DOCTYPE svg PUBLIC "-//W3C//DTD SVG 1.1//EN" "http://www.w3.org/Graphics/SVG/1.1/DTD/svg11.dtd">
<!-- Uploaded to: SVG Repo, www.svgrepo.com, Transformed by: SVG Repo Mixer Tools -->
<svg width="800px" height="800px" viewBox="0 0 24 24" fill="none" xmlns="http://www.w3.org/2000/svg">
<g id="SVGRepo_bgCarrier" stroke-width="0"/>
<g id="SVGRepo_tracerCarrier" stroke-linecap="round" stroke-linejoin="round"/>
<g id="SVGRepo_iconCarrier"> <g id="style=fill"> <g id="menu-hamburger"> <path id="Subtract" fill-rule="evenodd" clip-rule="evenodd" d="M7.25 1.25C3.93629 1.25 1.25 3.93629 1.25 7.25V16.75C1.25 20.0637 3.93629 22.75 7.25 22.75H16.75C20.0637 22.75 22.75 20.0637 22.75 16.75V7.25C22.75 3.93629 20.0637 1.25 16.75 1.25H7.25ZM4.84615 7C4.51691 7 4.25 7.33579 4.25 7.75C4.25 8.16421 4.51691 8.5 4.84615 8.5H19.1538C19.4831 8.5 19.75 8.16421 19.75 7.75C19.75 7.33579 19.4831 7 19.1538 7H4.84615ZM4.25 12.25C4.25 11.8358 4.51691 11.5 4.84615 11.5H19.1538C19.4831 11.5 19.75 11.8358 19.75 12.25C19.75 12.6642 19.4831 13 19.1538 13H4.84615C4.51691 13 4.25 12.6642 4.25 12.25ZM4.84615 16C4.51691 16 4.25 16.3358 4.25 16.75C4.25 17.1642 4.51691 17.5 4.84615 17.5H19.1538C19.4831 17.5 19.75 17.1642 19.75 16.75C19.75 16.3358 19.4831 16 19.1538 16H4.84615Z" fill="#1d4ed8"/> </g> </g> </g>
</svg>